<mxfile host="app.diagrams.net" modified="2021-12-26T11:38:30.194Z" agent="5.0 (Macintosh; Intel Mac OS X 10_15_7) AppleWebKit/537.36 (KHTML, like Gecko) Chrome/96.0.4664.110 Safari/537.36" etag="RJ9jhzW4u3dJ6s6Z5Sxy" version="16.1.0" type="github">
  <diagram id="WaHfDH1Nx6i7GQKPyZjy" name="Page-1">
    <mxGraphModel dx="946" dy="527" grid="1" gridSize="10" guides="1" tooltips="1" connect="1" arrows="1" fold="1" page="1" pageScale="1" pageWidth="827" pageHeight="1169" math="0" shadow="0">
      <root>
        <mxCell id="0" />
        <mxCell id="1" parent="0" />
        <mxCell id="Pf2hlAxHjkDawbTUkIR2-2" value="客户端" style="text;html=1;align=center;verticalAlign=middle;resizable=0;points=[];autosize=1;fontSize=20;" vertex="1" parent="1">
          <mxGeometry x="390" y="550" width="80" height="30" as="geometry" />
        </mxCell>
        <mxCell id="Pf2hlAxHjkDawbTUkIR2-3" value="服务端" style="text;html=1;align=center;verticalAlign=middle;resizable=0;points=[];autosize=1;fontSize=20;" vertex="1" parent="1">
          <mxGeometry x="780" y="610" width="80" height="30" as="geometry" />
        </mxCell>
        <mxCell id="Pf2hlAxHjkDawbTUkIR2-8" style="edgeStyle=none;rounded=0;orthogonalLoop=1;jettySize=auto;html=1;exitX=1;exitY=0;exitDx=0;exitDy=0;entryX=0;entryY=0;entryDx=0;entryDy=0;strokeWidth=2;fontSize=16;fillColor=#dae8fc;strokeColor=#6c8ebf;" edge="1" parent="1" source="Pf2hlAxHjkDawbTUkIR2-9" target="Pf2hlAxHjkDawbTUkIR2-16">
          <mxGeometry relative="1" as="geometry" />
        </mxCell>
        <mxCell id="Pf2hlAxHjkDawbTUkIR2-9" value="FIN_WAIT_1" style="html=1;whiteSpace=wrap;comic=1;strokeWidth=2;fontFamily=Comic Sans MS;fontStyle=1;fontSize=16;fillColor=#ffcd28;strokeColor=#d79b00;gradientColor=#ffa500;" vertex="1" parent="1">
          <mxGeometry x="370" y="615" width="120" height="140" as="geometry" />
        </mxCell>
        <mxCell id="Pf2hlAxHjkDawbTUkIR2-10" style="edgeStyle=none;rounded=0;orthogonalLoop=1;jettySize=auto;html=1;exitX=1;exitY=1;exitDx=0;exitDy=0;strokeWidth=2;fontSize=16;fillColor=#f8cecc;strokeColor=#b85450;" edge="1" parent="1" source="Pf2hlAxHjkDawbTUkIR2-11">
          <mxGeometry relative="1" as="geometry">
            <mxPoint x="680" y="900" as="targetPoint" />
          </mxGeometry>
        </mxCell>
        <mxCell id="Pf2hlAxHjkDawbTUkIR2-11" value="FIN_WAIT_2" style="html=1;whiteSpace=wrap;comic=1;strokeWidth=2;fontFamily=Comic Sans MS;fontStyle=1;fontSize=16;gradientColor=#ffa500;fillColor=#ffcd28;strokeColor=#d79b00;" vertex="1" parent="1">
          <mxGeometry x="370" y="755" width="120" height="90" as="geometry" />
        </mxCell>
        <mxCell id="Pf2hlAxHjkDawbTUkIR2-12" style="edgeStyle=none;rounded=0;orthogonalLoop=1;jettySize=auto;html=1;dashed=1;" edge="1" parent="1" source="Pf2hlAxHjkDawbTUkIR2-13" target="Pf2hlAxHjkDawbTUkIR2-14">
          <mxGeometry relative="1" as="geometry" />
        </mxCell>
        <mxCell id="Pf2hlAxHjkDawbTUkIR2-13" value="TIME_WAIT" style="html=1;whiteSpace=wrap;comic=1;strokeWidth=2;fontFamily=Comic Sans MS;fontStyle=1;fontSize=16;gradientColor=#ea6b66;fillColor=#f8cecc;strokeColor=#b85450;" vertex="1" parent="1">
          <mxGeometry x="370" y="845" width="120" height="80" as="geometry" />
        </mxCell>
        <mxCell id="Pf2hlAxHjkDawbTUkIR2-14" value="CLOSE" style="html=1;whiteSpace=wrap;comic=1;strokeWidth=2;fontFamily=Comic Sans MS;fontStyle=1;fontSize=16;gradientColor=#b3b3b3;fillColor=#f5f5f5;strokeColor=#666666;" vertex="1" parent="1">
          <mxGeometry x="370" y="925" width="120" height="225" as="geometry" />
        </mxCell>
        <mxCell id="Pf2hlAxHjkDawbTUkIR2-15" style="edgeStyle=none;rounded=0;orthogonalLoop=1;jettySize=auto;html=1;exitX=0;exitY=0;exitDx=0;exitDy=0;entryX=1;entryY=0;entryDx=0;entryDy=0;strokeWidth=2;fontSize=16;fillColor=#dae8fc;strokeColor=#6c8ebf;" edge="1" parent="1" source="Pf2hlAxHjkDawbTUkIR2-16" target="Pf2hlAxHjkDawbTUkIR2-11">
          <mxGeometry relative="1" as="geometry" />
        </mxCell>
        <mxCell id="Pf2hlAxHjkDawbTUkIR2-16" value="CLOSED_WAIT" style="html=1;whiteSpace=wrap;comic=1;strokeWidth=2;fontFamily=Comic Sans MS;fontStyle=1;fontSize=16;gradientColor=#ffd966;fillColor=#fff2cc;strokeColor=#d6b656;" vertex="1" parent="1">
          <mxGeometry x="750" y="652.5" width="120" height="80" as="geometry" />
        </mxCell>
        <mxCell id="Pf2hlAxHjkDawbTUkIR2-17" style="edgeStyle=none;rounded=0;orthogonalLoop=1;jettySize=auto;html=1;exitX=0;exitY=0;exitDx=0;exitDy=0;entryX=1;entryY=0;entryDx=0;entryDy=0;strokeWidth=2;fontSize=16;fillColor=#dae8fc;strokeColor=#6c8ebf;" edge="1" parent="1" source="Pf2hlAxHjkDawbTUkIR2-18" target="Pf2hlAxHjkDawbTUkIR2-13">
          <mxGeometry relative="1" as="geometry" />
        </mxCell>
        <mxCell id="Pf2hlAxHjkDawbTUkIR2-18" value="LAST_ACK" style="html=1;whiteSpace=wrap;comic=1;strokeWidth=2;fontFamily=Comic Sans MS;fontStyle=1;fontSize=16;gradientColor=#ffd966;fillColor=#fff2cc;strokeColor=#d6b656;" vertex="1" parent="1">
          <mxGeometry x="750" y="732.5" width="120" height="347.5" as="geometry" />
        </mxCell>
        <mxCell id="Pf2hlAxHjkDawbTUkIR2-22" value="FIN, ACK&lt;br&gt;SEQ = 100&amp;nbsp;&lt;br&gt;ACK = 302" style="html=1;whiteSpace=wrap;comic=1;strokeWidth=2;fontFamily=Comic Sans MS;fontStyle=1;fillColor=#dae8fc;strokeColor=#6c8ebf;" vertex="1" parent="1">
          <mxGeometry x="578" y="610" width="102" height="55" as="geometry" />
        </mxCell>
        <mxCell id="Pf2hlAxHjkDawbTUkIR2-23" value="ACK&lt;br&gt;SEQ = 302&amp;nbsp;&lt;br&gt;ACK = 101" style="html=1;whiteSpace=wrap;comic=1;strokeWidth=2;fontFamily=Comic Sans MS;fontStyle=1;fillColor=#dae8fc;strokeColor=#6c8ebf;" vertex="1" parent="1">
          <mxGeometry x="562" y="695" width="102" height="55" as="geometry" />
        </mxCell>
        <mxCell id="Pf2hlAxHjkDawbTUkIR2-24" value="FIN&lt;br&gt;SEQ = 302&amp;nbsp;&lt;br&gt;ACK = 101" style="html=1;whiteSpace=wrap;comic=1;strokeWidth=2;fontFamily=Comic Sans MS;fontStyle=1;fillColor=#dae8fc;strokeColor=#6c8ebf;" vertex="1" parent="1">
          <mxGeometry x="562" y="785" width="102" height="55" as="geometry" />
        </mxCell>
        <mxCell id="Pf2hlAxHjkDawbTUkIR2-25" value="ACK&lt;br&gt;SEQ = 101&amp;nbsp;&lt;br&gt;ACK = 303" style="html=1;whiteSpace=wrap;comic=1;strokeWidth=2;fontFamily=Comic Sans MS;fontStyle=1;fillColor=#f8cecc;strokeColor=#b85450;" vertex="1" parent="1">
          <mxGeometry x="540" y="850" width="102" height="55" as="geometry" />
        </mxCell>
        <mxCell id="Pf2hlAxHjkDawbTUkIR2-26" value="" style="shape=curlyBracket;whiteSpace=wrap;html=1;rounded=1;strokeWidth=2;fontSize=16;" vertex="1" parent="1">
          <mxGeometry x="330" y="845" width="30" height="80" as="geometry" />
        </mxCell>
        <mxCell id="Pf2hlAxHjkDawbTUkIR2-27" value="TIME-WAIT &lt;br&gt;时间过短或没有" style="text;html=1;align=center;verticalAlign=middle;resizable=0;points=[];autosize=1;fontSize=16;fillColor=#f8cecc;strokeColor=#b85450;" vertex="1" parent="1">
          <mxGeometry x="200" y="865" width="130" height="40" as="geometry" />
        </mxCell>
        <mxCell id="Pf2hlAxHjkDawbTUkIR2-47" value="丢失" style="text;html=1;align=center;verticalAlign=middle;resizable=0;points=[];autosize=1;strokeColor=#b85450;fillColor=#f8cecc;fontSize=16;" vertex="1" parent="1">
          <mxGeometry x="660" y="867.5" width="50" height="20" as="geometry" />
        </mxCell>
        <mxCell id="Pf2hlAxHjkDawbTUkIR2-48" style="edgeStyle=none;rounded=0;orthogonalLoop=1;jettySize=auto;html=1;exitX=0;exitY=0;exitDx=0;exitDy=0;entryX=1;entryY=0;entryDx=0;entryDy=0;strokeWidth=2;fontSize=16;fillColor=#fff2cc;strokeColor=#d6b656;" edge="1" parent="1">
          <mxGeometry relative="1" as="geometry">
            <mxPoint x="750" y="903.75" as="sourcePoint" />
            <mxPoint x="490" y="1016.25" as="targetPoint" />
          </mxGeometry>
        </mxCell>
        <mxCell id="Pf2hlAxHjkDawbTUkIR2-49" value="FIN&lt;br&gt;SEQ = 302&amp;nbsp;&lt;br&gt;ACK = 101" style="html=1;whiteSpace=wrap;comic=1;strokeWidth=2;fontFamily=Comic Sans MS;fontStyle=1;fillColor=#fff2cc;strokeColor=#d6b656;" vertex="1" parent="1">
          <mxGeometry x="562" y="950" width="102" height="55" as="geometry" />
        </mxCell>
        <mxCell id="Pf2hlAxHjkDawbTUkIR2-50" value="重传" style="text;html=1;align=center;verticalAlign=middle;resizable=0;points=[];autosize=1;strokeColor=#d6b656;fillColor=#fff2cc;fontSize=16;" vertex="1" parent="1">
          <mxGeometry x="588" y="925" width="50" height="20" as="geometry" />
        </mxCell>
        <mxCell id="Pf2hlAxHjkDawbTUkIR2-51" style="edgeStyle=none;rounded=0;orthogonalLoop=1;jettySize=auto;html=1;exitX=1;exitY=1;exitDx=0;exitDy=0;strokeWidth=2;fontSize=16;fillColor=#f8cecc;strokeColor=#b85450;entryX=0;entryY=1;entryDx=0;entryDy=0;" edge="1" parent="1" target="Pf2hlAxHjkDawbTUkIR2-18">
          <mxGeometry relative="1" as="geometry">
            <mxPoint x="490" y="1020" as="sourcePoint" />
            <mxPoint x="680" y="1075" as="targetPoint" />
          </mxGeometry>
        </mxCell>
        <mxCell id="Pf2hlAxHjkDawbTUkIR2-52" value="RST" style="html=1;whiteSpace=wrap;comic=1;strokeWidth=2;fontFamily=Comic Sans MS;fontStyle=1;fillColor=#f8cecc;strokeColor=#b85450;" vertex="1" parent="1">
          <mxGeometry x="570" y="1030" width="102" height="55" as="geometry" />
        </mxCell>
        <mxCell id="Pf2hlAxHjkDawbTUkIR2-55" value="CLOSE" style="html=1;whiteSpace=wrap;comic=1;strokeWidth=2;fontFamily=Comic Sans MS;fontStyle=1;fontSize=16;gradientColor=#b3b3b3;fillColor=#f5f5f5;strokeColor=#666666;" vertex="1" parent="1">
          <mxGeometry x="750" y="1080" width="120" height="70" as="geometry" />
        </mxCell>
        <mxCell id="Pf2hlAxHjkDawbTUkIR2-57" value="异常终止" style="text;html=1;align=center;verticalAlign=middle;resizable=0;points=[];autosize=1;strokeColor=#b85450;fillColor=#f8cecc;fontSize=16;" vertex="1" parent="1">
          <mxGeometry x="870" y="1070" width="80" height="20" as="geometry" />
        </mxCell>
      </root>
    </mxGraphModel>
  </diagram>
</mxfile>
